<svg id="Layer_1" data-name="Layer 1" xmlns="http://www.w3.org/2000/svg" viewBox="0 0 202.84 95.89"><title>signature</title><path d="M1.73,82.55a77.66,77.66,0,0,0,18-37.32c.76-4.21,1.64-9.06,1.07-13.35-.41-3.12-2.41-5.56-5.63-3.86a14.5,14.5,0,0,0-5.6,5.11c-4,6.32-3.7,15.34,1.2,21.11,3.15,3.7,7.67,5.8,11.6,8.52C26,65.27,31.25,70,25.9,73.68l1.61-.94c-2.93,1.63-6.41,1.18-9.48,2.38-.39.15-1.37,1.07-1.73,1,4.89,1,9.59-.59,13.55-3.43A14.82,14.82,0,0,0,34.59,55c0,.11-1.68.8-1.74,1a17.65,17.65,0,0,0,3.08,15.2,16.67,16.67,0,0,0,1.74-1A29.11,29.11,0,0,0,41,53c0,.27-1.64.69-1.73,1-2.18,7.18-1.43,14.58-.65,21.91.37,3.57.76,7.14.78,10.73,0,2.75.43,7.46-2.29,9.18l1.7-1c-3.33,1.1-4.41-4.26-4.71-6.53a20.13,20.13,0,0,1,1.34-9.89,25.37,25.37,0,0,1,5.64-8.62c2.66-2.69,6.1-4.42,8.76-7.11a11.18,11.18,0,0,0,2.75-4.25c.44-1.28,1.06-4.43-.58-5.11-1.1-.47-2.73.71-3.65,1.29-2.54,1.59-5.25,4.53-5.94,7.51-.73,3.15,1.21,5.89,3.94,7.28,4.47,2.29,9.11.15,12.89-2.45A28.59,28.59,0,0,0,67,59.09c1.64-2.58,2.32-6.66-.69-8.61-3.72-2.39-8.05,2.82-9.08,5.75-1.35,3.86-.29,12,5.53,8.88S67.87,54.54,68,48.9a117,117,0,0,0-3.31-29.35c0,.2-1.72.73-1.73,1-.3,8.67-.4,17.6.94,26.2.88,5.6,3.82,17.69,11.46,17.13,4.53-.33,8.84-4.65,11.18-8.07a55.71,55.71,0,0,0,8.62-21A56.55,56.55,0,0,0,94,9c0,.18-1.71.74-1.73,1-1.53,17.34-3,34.79-1,52.17,0-.26,1.75-.71,1.73-1-1-17.11-1.92-34.79,4.37-51.08l-1.73,1,4,29.75c.6,4.52,1,9.09,1.86,13.56.62,3.38,1.76,6.74,4.83,8.61a12.46,12.46,0,0,0,1.74-1c-.75-5-3.71-15.31-10.55-14.75-2.73.23-7,3.06-6.35,6.1,1,4.87,6.9,2.84,9.69,1,5.23-3.35,7.89-9.9,8-15.92l-1.73,1c1.5,3.12,3,6.23,4.52,9.36,1.16,2.42,2.49,5.36-.09,7.32l1.74-1c-.38.18-2,.83-2.29.1,0,0,2.15-1.81,2.33-2a25.07,25.07,0,0,0,3.78-4.8A29.56,29.56,0,0,0,121,37.55c1.34-9-1.31-18-5.12-26.13,0,.09-1.74.82-1.73,1a217.91,217.91,0,0,0,6,39.17c0-.19,1.77-.77,1.73-1-.94-6.5-1.64-14.93,4.42-19.24l-1.73,1q2.13,7.24,4.48,14.43c.76,2.34,1.88,6.57,5.15,5.16,6.44-2.78,3.21-13.56.92-18.22,0,0-1.61.87-1.73,1a10.81,10.81,0,0,0-.08,14.82,13,13,0,0,0,1.73-1,28.12,28.12,0,0,0,1.75-12.22c0,.28-1.74.69-1.73,1a9.91,9.91,0,0,0,5,8.41,8.36,8.36,0,0,0,1.74-1,42.51,42.51,0,0,0,.82-10.91l-1.73,1a26.62,26.62,0,0,1,6.68,13.92l1.73-1a10.56,10.56,0,0,1,3.7-12.4c-.54.38-1.19.61-1.73,1-4.54,3.26-1,10,3.84,10.36,3.27.24,7.27-2,9.54-4.29,4.62-4.78,5.92-12.93,7.27-19.17,1.65-7.67,2.31-15.53.53-23.24,0,.21-1.7.73-1.73,1q-2.19,23-2.51,46.2l1.73-1a126.8,126.8,0,0,1,3.79-41.92l-1.73,1,2.37,22.12c.56,5.26.21,12.79,5.13,16.16a14.13,14.13,0,0,0,1.73-1,16,16,0,0,0-12.66-9.71c-.24,0-1.63,1.11-1.73,1,4.42,5,11.07,6.71,16.88,3.23,3.24-1.94,4.8-5.19,5.92-8.68a43.31,43.31,0,0,0,2-15C191.5,11.29,191.23.8,187.33,2c-2.4.75-2.45,3.32-3,5.47a69,69,0,0,0-1.81,16.07c0,4.28-.17,9.79,2,13.65,1.92,3.44,5.11,3.11,8,1.35,4-2.39,4.33-6.61,4.34-10.89,0,.33-1.62.64-1.73,1-1.06,3.4-2.16,9.89,3.23,10.09a5.89,5.89,0,0,0,4.37-2.36c-.32.49-1.39.5-1.73,1a2.67,2.67,0,0,1-1.12,1.09l1.7-1c-2.68,1.08-5.1-.56-6-3.12s-1.45-6.67,1-8.37l-1.7,1a25.88,25.88,0,0,0,3.5-1.83c2.2-1.55,1.38-5.33-1.59-5.19a7.18,7.18,0,0,0-3.34,1.55c-2.65,1.91-1.64,5.26,1,6.63.33.17,1.42-1.16,1.73-1-2.62-1.37-3.57-4.54-1.11-6.56l-1.3.76c3.19-1.82,5.78,2.82,2.89,4.81l1.7-1A24.31,24.31,0,0,0,194.85,27c-2.45,1.76-1.92,6.25-.84,8.72a5,5,0,0,0,8.79.66l-1.73,1A2.36,2.36,0,0,1,200,38.42l1.71-1a4.28,4.28,0,0,1-5.09-1.81c-1.43-2.4-.44-5.55.32-8l-1.73,1c0,3.9-.19,7.94-3.59,10.45l1.09-.64-.63.35.64-.36c-7.61,3.24-8.18-8.58-8.37-13.13a70,70,0,0,1,3-23.32l-1.73,1c4-1.15,4.2,9.58,4.27,11.84a43.11,43.11,0,0,1-2.36,15.44c-1.45,4.18-3.56,7.88-8.41,7.84a14.69,14.69,0,0,1-10.59-5.23l-1.73,1a16,16,0,0,1,12.73,9.7l1.73-1c-4.91-3.36-4.56-10.9-5.13-16.16L173.75,4.27c0,.27-1.65.68-1.73,1a126.8,126.8,0,0,0-3.79,41.92c0-.29,1.72-.67,1.73-1Q170.27,23,172.47,0l-1.73,1a49.53,49.53,0,0,1,.19,19.52c-1,6-2.37,12.42-4.84,18-2,4.47-6.18,9-11.54,6.62-3.69-1.63-5-7.29-1.53-9.8l-1.73,1a10.56,10.56,0,0,0-3.7,12.4c-.05-.12,1.76-.82,1.73-1a26.54,26.54,0,0,0-6.8-13.82,14.13,14.13,0,0,0-1.73,1A42.07,42.07,0,0,1,140,45.82l1.74-1a9.91,9.91,0,0,1-5-8.41l-1.73,1a28.12,28.12,0,0,1-1.75,12.22l1.73-1A10.81,10.81,0,0,1,135,33.81l-1.73,1a25.09,25.09,0,0,1,2.58,9.32c.17,2.5.4,6.56-2.08,8.07l1.7-1c-3.64,1-4.63-4.77-5.4-7.15-1.35-4.19-2.64-8.41-3.89-12.63,0,.06-1.57.89-1.73,1-6.06,4.31-5.36,12.74-4.42,19.24l1.73-1a217.91,217.91,0,0,1-6-39.17l-1.73,1c5.57,11.83,8.4,26.37.67,38a24.31,24.31,0,0,1-2.62,3.28,17.82,17.82,0,0,1-1.67,1.58c-.56.49-1.67.8-.64,1.2s2.45-.67,3.2-1.19c2.34-1.59,1.93-3.91.92-6.25-1.54-3.59-3.41-7.07-5.1-10.58,0,.1-1.73.82-1.73,1-.09,6.08-2.75,12.33-7.87,15.85l1.1-.64-.69.39.64-.36c-2.2,1-5.1,1.18-6.74-1s-.31-4.38,1.56-5.68l-1.7,1c7.86-4.25,12.12,8.52,12.92,13.95l1.74-1c-3-1.81-4.14-5-4.78-8.27-.89-4.57-1.3-9.28-1.92-13.9l-4-29.75c0,.24-1.62.71-1.73,1-6.29,16.29-5.39,34-4.37,51.08l1.73-1C91,43.82,92.49,26.37,94,9l-1.73,1a56.83,56.83,0,0,1-3.5,39.85c-2.31,4.78-6.85,14.33-13.46,12.88-3.15-.69-5.15-3.84-6.53-6.51a34,34,0,0,1-3.12-10.08c-1.43-8.72-1.32-17.81-1-26.61l-1.73,1a116.87,116.87,0,0,1,3.28,25.11,97.41,97.41,0,0,1-.4,12.2c-.28,2.7-1.08,5.68-3.35,7.38l1.47-.86c-3.21,1.8-5.42-1.65-5.65-4.43-.28-3.47,1.12-7.63,4.15-9.57l-1.7,1c4.44-2,6.85,3.28,5.45,6.9a18.89,18.89,0,0,1-4.39,5.94c-1.91,2-4,4-6.74,4.78-3.66,1.06-8.17-.11-10.21-3.52-2.59-4.33,1.55-9.56,5.16-11.82l-1.7,1c4.3-1.84,3,4.44,1.76,6.55-1.87,3.26-5.31,5.12-8.19,7.37A24.69,24.69,0,0,0,32.31,85c-.33,3.24.47,13.34,5.75,10.26a5.23,5.23,0,0,0,2.74-4c.67-3.85.32-8,0-11.86-.77-8.81-2.43-17.73.2-26.39l-1.73,1a29,29,0,0,1-3.36,17.17l1.74-1A17.65,17.65,0,0,1,34.57,55l-1.74,1a15,15,0,0,1-1.16,14c-3,4.63-8.39,6.2-13.66,5.13l-1.73,1c2.91-1.14,6.2-.75,9-2.13a15.73,15.73,0,0,0,2.85-1.69c6.58-5.11-5.7-11.57-9.24-13.84C13.5,55,9.35,50.71,8.61,44.11c-.63-5.57,1.35-13,6.52-16l-1.31.75c5.66-2.33,5.37,6,5.14,9.3a76.3,76.3,0,0,1-3,16.55A77.85,77.85,0,0,1,0,83.58c.41-.47,1.31-.52,1.73-1Z" transform="translate(0.04 0.01)"/></svg>