<svg id="Layer_1" data-name="Layer 1" xmlns="http://www.w3.org/2000/svg" viewBox="0 0 294.07 139.15"><defs><style>.cls-1{fill:none;stroke:#000;stroke-miterlimit:10;stroke-width:0.25px;}</style></defs><title>signature3</title><path class="cls-1" d="M58.14,205A112.37,112.37,0,0,0,84.2,151c1.1-6.09,2.37-13.11,1.54-19.32-.59-4.52-3.48-8-8.14-5.59a21,21,0,0,0-8.11,7.4c-5.79,9.14-5.36,22.2,1.74,30.55,4.56,5.36,11.1,8.4,16.79,12.33,5.22,3.64,12.85,10.51,5.11,15.81l2.33-1.36c-4.24,2.36-9.28,1.71-13.72,3.44-.57.22-2,1.55-2.51,1.45,7.08,1.45,13.88-.85,19.61-5a21.44,21.44,0,0,0,6.86-25.67c0,.16-2.43,1.16-2.51,1.45a25.54,25.54,0,0,0,4.45,22,24.11,24.11,0,0,0,2.52-1.44A42.14,42.14,0,0,0,115,162.25c0,.39-2.37,1-2.5,1.45-3.16,10.39-2.07,21.1-.94,31.71.53,5.17,1.1,10.34,1.13,15.53,0,4,.62,10.8-3.32,13.29l2.46-1.45c-4.82,1.6-6.38-6.16-6.82-9.45A29.26,29.26,0,0,1,107,199a37.06,37.06,0,0,1,8.17-12.48c3.85-3.89,8.83-6.4,12.68-10.29a16.17,16.17,0,0,0,4-6.15c.63-1.86,1.53-6.41-.84-7.4-1.59-.68-3.95,1-5.28,1.87-3.68,2.3-7.6,6.56-8.6,10.87C116,180,118.82,184,122.77,186c6.47,3.31,13.19.21,18.66-3.55a41.36,41.36,0,0,0,11.14-11.35c2.38-3.73,3.36-9.64-1-12.46-5.38-3.46-11.65,4.08-13.14,8.32-2,5.59-.42,17.37,8,12.86s7.44-15.3,7.57-23.47a169.78,169.78,0,0,0-4.79-42.48c.07.29-2.49,1.06-2.51,1.45-.43,12.55-.58,25.47,1.36,37.92,1.28,8.11,5.53,25.61,16.59,24.8,6.56-.48,12.79-6.74,16.18-11.69a80.6,80.6,0,0,0,12.48-30.39,81.89,81.89,0,0,0-1.62-37.35c.07.26-2.48,1.07-2.51,1.45-2.21,25.1-4.34,50.36-1.44,75.51,0-.37,2.53-1,2.5-1.44-1.45-24.77-2.78-50.36,6.33-73.94l-2.51,1.45,5.79,43.06c.87,6.54,1.45,13.16,2.69,19.63.9,4.89,2.55,9.75,7,12.46a17.5,17.5,0,0,0,2.52-1.45c-1.08-7.23-5.37-22.16-15.27-21.35-3.95.34-10.13,4.43-9.19,8.83,1.45,7,10,4.11,14,1.45,7.57-4.85,11.42-14.33,11.58-23l-2.51,1.44c2.17,4.52,4.35,9,6.55,13.55,1.67,3.51,3.6,7.76-.13,10.6l2.51-1.45c-.55.26-2.89,1.2-3.31.14,0,0,3.11-2.62,3.37-2.89a35.36,35.36,0,0,0,5.47-6.95,42.52,42.52,0,0,0,5.55-15.75c1.94-13-1.9-26.05-7.41-37.82.07.13-2.52,1.19-2.51,1.45a315.91,315.91,0,0,0,8.69,56.7c0-.28,2.56-1.12,2.5-1.45-1.36-9.41-2.37-21.61,6.4-27.85l-2.51,1.45q3.09,10.49,6.49,20.88c1.1,3.39,2.72,9.51,7.45,7.47,9.32-4,4.65-19.62,1.33-26.37,0,0-2.33,1.26-2.5,1.45a15.65,15.65,0,0,0-.12,21.45,16.88,16.88,0,0,0,2.51-1.45,40.7,40.7,0,0,0,2.53-17.69c0,.41-2.52,1-2.5,1.45a14.34,14.34,0,0,0,7.23,12.17,12.55,12.55,0,0,0,2.52-1.44A61.15,61.15,0,0,0,262,134.5L259.5,136a38.55,38.55,0,0,1,9.67,20.15l2.5-1.45A15.27,15.27,0,0,1,277,136.71c-.78.55-1.72.88-2.5,1.44-6.57,4.72-1.45,14.48,5.56,15,4.73.35,10.52-2.9,13.81-6.21,6.68-6.92,8.57-18.72,10.52-27.75,2.39-11.1,3.34-22.48.77-33.64.07.31-2.46,1.06-2.51,1.45q-3.17,33.28-3.63,66.87l2.5-1.45A183.52,183.52,0,0,1,307,91.75l-2.5,1.44,3.43,32c.81,7.62.3,18.52,7.42,23.39a22.31,22.31,0,0,0,2.51-1.44,23.16,23.16,0,0,0-18.33-14.06c-.35,0-2.36,1.61-2.5,1.45,6.4,7.24,16,9.71,24.43,4.67,4.69-2.8,6.95-7.51,8.57-12.56A62.64,62.64,0,0,0,333,105c-.13-3.06-.52-18.24-6.16-16.49-3.48,1.09-3.55,4.81-4.34,7.92a99,99,0,0,0-2.62,23.26c0,6.19-.25,14.17,2.89,19.76,2.78,5,7.4,4.5,11.58,1.95,5.79-3.46,6.27-9.57,6.28-15.76,0,.48-2.34.93-2.5,1.45-1.54,4.92-3.13,14.31,4.67,14.6a8.52,8.52,0,0,0,6.33-3.42c-.46.71-2,.73-2.51,1.45a3.8,3.8,0,0,1-1.62,1.58l2.46-1.45c-3.88,1.57-7.38-.81-8.68-4.51s-2.1-9.66,1.45-12.12l-2.46,1.45a37.47,37.47,0,0,0,5.06-2.65c3.19-2.24,2-7.71-2.3-7.51a10.48,10.48,0,0,0-4.83,2.24c-3.84,2.77-2.38,7.61,1.44,9.6.48.24,2.06-1.68,2.51-1.45-3.79-2-5.17-6.57-1.61-9.49l-1.88,1.1c4.62-2.64,8.37,4.08,4.18,7l2.46-1.45a34,34,0,0,0-5.08,2.63c-3.54,2.55-2.78,9.05-1.21,12.63a7.23,7.23,0,0,0,9.54,3.68,7.15,7.15,0,0,0,3.18-2.73l-2.5,1.45a3.37,3.37,0,0,1-1.57,1.53l2.48-1.44a6.21,6.21,0,0,1-7.37-2.62c-2.07-3.48-.64-8,.46-11.58l-2.5,1.44c0,5.65-.28,11.5-5.2,15.13l1.58-.93-.91.51.93-.52c-11,4.69-11.84-12.42-12.12-19a101.23,101.23,0,0,1,4.34-33.75l-2.5,1.45c5.79-1.67,6.08,13.86,6.18,17.13a62.43,62.43,0,0,1-3.42,22.35c-2.1,6.05-5.15,11.41-12.17,11.35a21.31,21.31,0,0,1-15.33-7.57l-2.5,1.45a23.14,23.14,0,0,1,18.42,14l2.51-1.45c-7.11-4.86-6.6-15.78-7.43-23.39l-3.43-32c0,.39-2.39,1-2.5,1.45a183.58,183.58,0,0,0-5.49,60.68c0-.42,2.49-1,2.51-1.45q.45-33.51,3.63-66.87L302.77,87a71.65,71.65,0,0,1,.28,28.25c-1.45,8.68-3.43,18-7,26.05-2.89,6.47-8.94,13-16.7,9.59-5.34-2.36-7.24-10.56-2.21-14.19l-2.51,1.45a15.28,15.28,0,0,0-5.35,18c-.08-.18,2.54-1.19,2.5-1.45a38.42,38.42,0,0,0-9.84-20,20.12,20.12,0,0,0-2.51,1.44,60.61,60.61,0,0,1-1.2,15.79l2.52-1.44a14.4,14.4,0,0,1-7.24-12.18L251,139.7a40.87,40.87,0,0,1-2.53,17.69l2.5-1.45a15.64,15.64,0,0,1,.12-21.45l-2.51,1.45a36.29,36.29,0,0,1,3.74,13.49c.24,3.62.58,9.49-3,11.68l2.46-1.45c-5.27,1.45-6.7-6.9-7.82-10.35-1.95-6.06-3.82-12.17-5.63-18.28,0,.09-2.27,1.29-2.5,1.45-8.78,6.24-7.76,18.44-6.4,27.85l2.5-1.45a314.87,314.87,0,0,1-8.68-56.7l-2.51,1.45c8.07,17.12,12.16,38.17,1,55a34.63,34.63,0,0,1-3.79,4.75,27.54,27.54,0,0,1-2.42,2.29c-.81.71-2.41,1.16-.92,1.74s3.54-1,4.63-1.73c3.39-2.3,2.79-5.66,1.33-9-2.23-5.2-4.93-10.24-7.38-15.32,0,.15-2.51,1.19-2.51,1.45-.13,8.8-4,17.85-11.39,22.94l1.6-.92-1,.56.92-.52c-3.18,1.45-7.38,1.71-9.75-1.45s-.45-6.34,2.26-8.22l-2.47,1.45c11.38-6.15,17.55,12.33,18.71,20.19l2.51-1.45c-4.34-2.62-6-7.24-6.91-12-1.29-6.61-1.89-13.43-2.78-20.12l-5.79-43.06c0,.35-2.35,1-2.51,1.45-9.1,23.58-7.8,49.21-6.32,73.93l2.5-1.44c-2.89-25.16-.71-50.42,1.45-75.52l-2.51,1.45a82.26,82.26,0,0,1-5.06,57.68c-3.34,6.92-9.92,20.74-19.48,18.64-4.56-1-7.46-5.55-9.46-9.42a49.45,49.45,0,0,1-4.51-14.59c-2.07-12.62-1.91-25.78-1.45-38.52l-2.5,1.45a169.41,169.41,0,0,1,4.74,36.35,140.72,140.72,0,0,1-.57,17.66c-.41,3.9-1.57,8.22-4.85,10.68l2.12-1.25c-4.64,2.61-7.84-2.38-8.17-6.41-.41-5,1.62-11,6-13.85l-2.46,1.45c6.43-2.9,9.92,4.74,7.89,10a27.32,27.32,0,0,1-6.35,8.6c-2.77,2.9-5.79,5.79-9.76,6.92-5.3,1.53-11.82-.16-14.78-5.09-3.75-6.27,2.25-13.84,7.47-17.11l-2.46,1.44c6.22-2.66,4.34,6.43,2.55,9.49-2.71,4.71-7.69,7.41-11.86,10.66a35.75,35.75,0,0,0-13.81,23.81c-.47,4.69.69,19.31,8.33,14.85a7.54,7.54,0,0,0,4-5.79c1-5.57.47-11.58,0-17.16-1.11-12.75-3.51-25.67.29-38.2l-2.5,1.45a42,42,0,0,1-4.86,24.85l2.51-1.45a25.54,25.54,0,0,1-4.45-22l-2.52,1.45a21.72,21.72,0,0,1-1.68,20.26c-4.34,6.7-12.15,9-19.77,7.43l-2.51,1.45c4.21-1.65,9-1.09,13-3.09a23,23,0,0,0,4.12-2.44c9.53-7.4-8.25-16.75-13.37-20-7.8-5-13.81-11.26-14.88-20.81-.91-8.06,2-18.82,9.44-23.23l-1.9,1.08c8.19-3.37,7.77,8.69,7.44,13.46a110.71,110.71,0,0,1-4.34,24,112.54,112.54,0,0,1-23.16,41.86c.59-.68,1.9-.75,2.5-1.45Z" transform="translate(-55.49 -85.31)"/></svg>